<?xml version="1.0" standalone="no"?>
<!DOCTYPE svg PUBLIC "-//W3C//DTD SVG 20010904//EN"
 "http://www.w3.org/TR/2001/REC-SVG-20010904/DTD/svg10.dtd">
<svg version="1.0" xmlns="http://www.w3.org/2000/svg"
 width="512.000000pt" height="512.000000pt" viewBox="0 0 512.000000 512.000000"
 preserveAspectRatio="xMidYMid meet">
<metadata>
Created by potrace 1.14, written by Peter Selinger 2001-2017
</metadata>
<g transform="translate(0.000000,512.000000) scale(0.100000,-0.100000)"
fill="#000000" stroke="none">
<path d="M2530 5113 c-54 -19 -321 -375 -425 -567 -168 -312 -199 -585 -89
-796 57 -110 161 -220 208 -220 11 0 34 7 50 15 27 15 34 14 80 -4 28 -11 67
-24 86 -29 l35 -8 1 -128 1 -128 -86 6 c-47 3 -97 8 -111 10 -28 5 -117 19
-140 22 -8 1 -139 23 -290 49 -275 47 -343 54 -411 42 -128 -22 -236 -121
-269 -247 -18 -68 -19 -495 -1 -532 13 -26 36 -38 89 -47 4 0 8 -495 9 -1098
0 -993 2 -1103 17 -1154 43 -144 169 -261 312 -289 68 -13 1854 -13 1924 0
166 31 306 180 327 346 5 33 8 539 8 1126 -1 588 1 1068 5 1069 39 5 59 14 79
34 l25 24 0 238 c-1 268 -10 319 -67 395 -92 120 -228 163 -412 130 -33 -6
-75 -14 -92 -17 -18 -3 -48 -7 -65 -10 -18 -3 -58 -10 -88 -15 -30 -5 -73 -12
-95 -15 -22 -4 -47 -8 -55 -10 -8 -2 -37 -7 -65 -11 -27 -3 -52 -8 -55 -9 -3
-2 -33 -7 -65 -10 -33 -4 -63 -9 -66 -11 -3 -2 -49 -6 -101 -10 l-96 -6 1 126
0 126 56 16 c31 9 69 23 84 31 25 13 33 13 62 -1 18 -9 42 -16 52 -16 44 0
148 109 202 210 156 292 51 676 -316 1158 -151 197 -195 235 -253 215z"/>
</g>
</svg>
