<svg width="25" height="25" fill="none" xmlns="http://www.w3.org/2000/svg"><path d="M12.5 7.813a4.687 4.687 0 100 9.374 4.687 4.687 0 000-9.375zm0 7.812a3.125 3.125 0 110-6.25 3.125 3.125 0 010 6.25zm4.688-13.281H7.813a5.475 5.475 0 00-5.47 5.469v9.375a5.475 5.475 0 005.47 5.468h9.375a5.475 5.475 0 005.468-5.468V7.813a5.475 5.475 0 00-5.468-5.47zm3.906 14.844a3.906 3.906 0 01-3.907 3.906H7.813a3.906 3.906 0 01-3.906-3.907V7.813a3.906 3.906 0 013.906-3.906h9.375a3.906 3.906 0 013.907 3.906v9.375zM18.75 7.421a1.172 1.172 0 11-2.343 0 1.172 1.172 0 012.343 0z" fill="#000"/></svg>